{
  "accessors": [
    {
      "bufferView": 2,
      "componentType": 5126,
      "count": 29400,
      "max": [
        19.1766357421875,
        17.919265747070313,
        5.242054462432861
      ],
      "min": [
        -20.7700138092041,
        -0.1619277000427246,
        -32.85805892944336
      ],
      "type": "VEC3"
    },
    {
      "bufferView": 2,
      "byteOffset": 352800,
      "componentType": 5126,
      "count": 29400,
      "max": [
        0.9999880194664001,
        1.0,
        0.9999880194664001
      ],
      "min": [
        -0.9999880194664001,
        -1.0,
        -0.9999880194664001
      ],
      "type": "VEC3"
    },
    {
      "bufferView": 3,
      "componentType": 5126,
      "count": 29400,
      "max": [
        0.9995140433311462,
        1.0,
        0.999981164932251,
        1.0
      ],
      "min": [
        -0.9995155334472656,
        -0.8916419148445129,
        -0.9999808669090271,
        1.0
      ],
      "type": "VEC4"
    },
    {
      "bufferView": 1,
      "componentType": 5126,
      "count": 29400,
      "max": [
        0.9778859615325928,
        0.9878866076469421
      ],
      "min": [
        0.031394295394420624,
        0.01538589596748352
      ],
      "type": "VEC2"
    },
    {
      "bufferView": 0,
      "componentType": 5125,
      "count": 86400,
      "type": "SCALAR"
    }
  ],
  "asset": {
    "extras": {
      "author": "QuangCao (https://sketchfab.com/quangcao)",
      "license": "CC-BY-ND-4.0 (http://creativecommons.org/licenses/by-nd/4.0/)",
      "source": "https://sketchfab.com/3d-models/100-apex-coins-b83a3deb135e4d8bb52b5f71d204a9eb",
      "title": "100 Apex Coins"
    },
    "generator": "Sketchfab-12.66.0",
    "version": "2.0"
  },
  "bufferViews": [
    {
      "buffer": 0,
      "byteLength": 345600,
      "name": "floatBufferViews",
      "target": 34963
    },
    {
      "buffer": 0,
      "byteLength": 235200,
      "byteOffset": 345600,
      "byteStride": 8,
      "name": "floatBufferViews",
      "target": 34962
    },
    {
      "buffer": 0,
      "byteLength": 705600,
      "byteOffset": 580800,
      "byteStride": 12,
      "name": "floatBufferViews",
      "target": 34962
    },
    {
      "buffer": 0,
      "byteLength": 470400,
      "byteOffset": 1286400,
      "byteStride": 16,
      "name": "floatBufferViews",
      "target": 34962
    }
  ],
  "buffers": [
    {
      "byteLength": 1756800,
      "uri": "scene.bin"
    }
  ],
  "extensionsRequired": [
    "KHR_materials_pbrSpecularGlossiness"
  ],
  "extensionsUsed": [
    "KHR_materials_pbrSpecularGlossiness"
  ],
  "images": [
    {
      "uri": "textures/coin_diffuse.png"
    },
    {
      "uri": "textures/coin_specularGlossiness.png"
    },
    {
      "uri": "textures/coin_normal.png"
    },
    {
      "uri": "textures/coin_occlusion.png"
    }
  ],
  "materials": [
    {
      "doubleSided": true,
      "extensions": {
        "KHR_materials_pbrSpecularGlossiness": {
          "diffuseFactor": [
            1.0,
            1.0,
            1.0,
            1.0
          ],
          "diffuseTexture": {
            "index": 0
          },
          "glossinessFactor": 1.0,
          "specularFactor": [
            1.0,
            1.0,
            1.0
          ],
          "specularGlossinessTexture": {
            "index": 1
          }
        }
      },
      "name": "coin",
      "normalTexture": {
        "index": 2
      },
      "occlusionTexture": {
        "index": 3
      }
    }
  ],
  "meshes": [
    {
      "name": "coin_low99_coin_0",
      "primitives": [
        {
          "attributes": {
            "NORMAL": 1,
            "POSITION": 0,
            "TANGENT": 2,
            "TEXCOORD_0": 3
          },
          "indices": 4,
          "material": 0,
          "mode": 4
        }
      ]
    }
  ],
  "nodes": [
    {
      "children": [
        1
      ],
      "matrix": [
        1.0,
        0.0,
        0.0,
        0.0,
        0.0,
        2.220446049250313e-16,
        -1.0,
        0.0,
        0.0,
        1.0,
        2.220446049250313e-16,
        0.0,
        0.0,
        0.0,
        0.0,
        1.0
      ],
      "name": "Sketchfab_model"
    },
    {
      "children": [
        2
      ],
      "matrix": [
        0.009999999776482582,
        0.0,
        0.0,
        0.0,
        0.0,
        0.0,
        0.009999999776482582,
        0.0,
        0.0,
        -0.009999999776482582,
        0.0,
        0.0,
        0.0,
        0.0,
        0.0,
        1.0
      ],
      "name": "270693e104e24f17a6256e316d032624.fbx"
    },
    {
      "children": [
        3
      ],
      "name": "RootNode"
    },
    {
      "children": [
        4
      ],
      "name": "coin_scene"
    },
    {
      "children": [
        5
      ],
      "name": "coin_low99"
    },
    {
      "mesh": 0,
      "name": "coin_low99_coin_0"
    }
  ],
  "samplers": [
    {
      "magFilter": 9729,
      "minFilter": 9987,
      "wrapS": 10497,
      "wrapT": 10497
    }
  ],
  "scene": 0,
  "scenes": [
    {
      "name": "Sketchfab_Scene",
      "nodes": [
        0
      ]
    }
  ],
  "textures": [
    {
      "sampler": 0,
      "source": 0
    },
    {
      "sampler": 0,
      "source": 1
    },
    {
      "sampler": 0,
      "source": 2
    },
    {
      "sampler": 0,
      "source": 3
    }
  ]
}
